G04*
G04 #@! TF.GenerationSoftware,Altium Limited,Altium Designer,20.0.14 (345)*
G04*
G04 Layer_Physical_Order=1*
G04 Layer_Color=255*
%FSLAX25Y25*%
%MOIN*%
G70*
G01*
G75*
%ADD10C,0.01000*%
%ADD12R,0.05906X0.02362*%
%ADD13R,0.06004X0.02559*%
%ADD14R,0.04331X0.05512*%
%ADD15R,0.04724X0.02362*%
%ADD23C,0.00400*%
%ADD24O,0.09843X0.04724*%
%ADD25R,0.09843X0.04724*%
%ADD26C,0.02756*%
G36*
X481000Y216500D02*
X387500D01*
Y323000D01*
X481000D01*
Y216500D01*
D02*
G37*
%LPC*%
G36*
X479243Y317862D02*
X467401D01*
Y315950D01*
X458000D01*
X457415Y315834D01*
X456919Y315503D01*
X453607Y312191D01*
X442283D01*
Y312842D01*
X435559D01*
Y311848D01*
X435118Y311613D01*
X434928Y311740D01*
X434500Y311825D01*
Y309500D01*
X433500D01*
Y311825D01*
X433072Y311740D01*
X432882Y311613D01*
X432441Y311848D01*
Y312842D01*
X425716D01*
Y312191D01*
X421508D01*
X418196Y315503D01*
X417700Y315834D01*
X417115Y315950D01*
X400921D01*
Y317862D01*
X389079D01*
Y311138D01*
X400921D01*
Y312892D01*
X416481D01*
X419793Y309580D01*
X420290Y309248D01*
X420875Y309132D01*
X421579D01*
X421730Y308632D01*
X421260Y307928D01*
X421175Y307500D01*
X423500D01*
Y306500D01*
X421175D01*
X421190Y306422D01*
X421145Y306311D01*
X420786Y305950D01*
X400597D01*
X400496Y306196D01*
X399957Y306898D01*
X399255Y307437D01*
X398437Y307776D01*
X397559Y307891D01*
X392441D01*
X391563Y307776D01*
X390745Y307437D01*
X390043Y306898D01*
X389504Y306196D01*
X389165Y305378D01*
X389050Y304500D01*
X389165Y303622D01*
X389504Y302804D01*
X390043Y302102D01*
X390745Y301563D01*
X391563Y301224D01*
X392441Y301109D01*
X397559D01*
X398437Y301224D01*
X399255Y301563D01*
X399957Y302102D01*
X400496Y302804D01*
X400532Y302892D01*
X420366D01*
X421159Y302099D01*
X421655Y301768D01*
X422240Y301652D01*
X425716D01*
Y301000D01*
X431277D01*
Y296670D01*
X430333Y295726D01*
X430001Y295230D01*
X429885Y294645D01*
Y269951D01*
X427825D01*
Y270641D01*
X427825Y270701D01*
Y271142D01*
X427825Y271201D01*
Y275641D01*
X427825Y275701D01*
Y276142D01*
X427825Y276201D01*
Y280642D01*
X427825Y280701D01*
Y281141D01*
X427825Y281201D01*
Y285701D01*
X419821D01*
Y284950D01*
X418133D01*
X407581Y295502D01*
X407085Y295834D01*
X406500Y295951D01*
X400597D01*
X400496Y296196D01*
X399957Y296898D01*
X399255Y297437D01*
X398437Y297776D01*
X397559Y297891D01*
X392441D01*
X391563Y297776D01*
X390745Y297437D01*
X390043Y296898D01*
X389504Y296196D01*
X389165Y295378D01*
X389050Y294500D01*
X389165Y293622D01*
X389504Y292804D01*
X390043Y292102D01*
X390745Y291563D01*
X391563Y291224D01*
X392441Y291109D01*
X397559D01*
X398437Y291224D01*
X399255Y291563D01*
X399957Y292102D01*
X400496Y292804D01*
X400532Y292892D01*
X405866D01*
X416419Y282340D01*
X416915Y282008D01*
X417500Y281892D01*
X419821D01*
Y281201D01*
X419821Y281141D01*
Y280701D01*
X419821Y280642D01*
Y279950D01*
X415633D01*
X410081Y285503D01*
X409585Y285834D01*
X409000Y285950D01*
X400597D01*
X400496Y286196D01*
X399957Y286898D01*
X399255Y287437D01*
X398437Y287776D01*
X397559Y287891D01*
X392441D01*
X391563Y287776D01*
X390745Y287437D01*
X390043Y286898D01*
X389504Y286196D01*
X389165Y285378D01*
X389050Y284500D01*
X389165Y283622D01*
X389504Y282804D01*
X390043Y282102D01*
X390745Y281563D01*
X391563Y281224D01*
X392441Y281109D01*
X397559D01*
X398437Y281224D01*
X399255Y281563D01*
X399957Y282102D01*
X400496Y282804D01*
X400532Y282892D01*
X408366D01*
X413919Y277340D01*
X414415Y277008D01*
X415000Y276892D01*
X419821D01*
Y276201D01*
X419821Y276142D01*
Y275701D01*
X419821Y275641D01*
Y274951D01*
X416634D01*
X416081Y275502D01*
X415585Y275834D01*
X415000Y275951D01*
X400300D01*
X399957Y276398D01*
X399255Y276937D01*
X398437Y277276D01*
X397559Y277391D01*
X392441D01*
X391563Y277276D01*
X390745Y276937D01*
X390043Y276398D01*
X389504Y275696D01*
X389165Y274878D01*
X389050Y274000D01*
X389165Y273122D01*
X389504Y272304D01*
X390043Y271602D01*
X390745Y271063D01*
X391563Y270724D01*
X392441Y270609D01*
X397559D01*
X398437Y270724D01*
X399255Y271063D01*
X399957Y271602D01*
X400496Y272304D01*
X400739Y272892D01*
X414366D01*
X414919Y272340D01*
X415415Y272008D01*
X416000Y271892D01*
X419821D01*
Y271201D01*
X419821Y271142D01*
Y270701D01*
X419821Y270641D01*
Y268921D01*
X423823D01*
Y268421D01*
X424323D01*
Y266142D01*
X427825D01*
Y266892D01*
X429885D01*
Y235143D01*
X429500Y234827D01*
Y232500D01*
Y230175D01*
X429928Y230260D01*
X430714Y230786D01*
X431091Y231349D01*
X432496Y232754D01*
X432827Y233250D01*
X432944Y233835D01*
Y268421D01*
Y294011D01*
X433480Y294548D01*
X433878Y294435D01*
X433980Y294360D01*
Y270000D01*
Y261256D01*
X434058Y260866D01*
X434279Y260535D01*
X434429Y260435D01*
Y253744D01*
X435471D01*
Y248007D01*
X435587Y247422D01*
X435919Y246925D01*
X436504Y246340D01*
X437001Y246008D01*
X437586Y245892D01*
X446811D01*
Y245240D01*
X454716D01*
Y249602D01*
X446811D01*
Y248951D01*
X438529D01*
Y253744D01*
X443000D01*
Y257500D01*
X444000D01*
Y253744D01*
X444502D01*
X446328Y251919D01*
X446824Y251587D01*
X447409Y251471D01*
X466000D01*
X466585Y251587D01*
X467081Y251919D01*
X467452Y252290D01*
X468221D01*
X468365Y252102D01*
X469067Y251563D01*
X469885Y251224D01*
X470763Y251109D01*
X472822D01*
Y253581D01*
X472992Y253836D01*
X473108Y254421D01*
X473093Y254500D01*
X472992Y255006D01*
X472822Y255261D01*
Y258169D01*
X471910Y259081D01*
X471414Y259413D01*
X470828Y259529D01*
X464747D01*
X464162Y259413D01*
X463665Y259081D01*
X463613Y259029D01*
X459665D01*
Y261256D01*
X457000D01*
Y257500D01*
X456000D01*
Y261256D01*
X455851D01*
X455660Y261718D01*
X456422Y262480D01*
X467024D01*
X467072Y262490D01*
X467121Y262485D01*
X467266Y262528D01*
X467415Y262558D01*
X467417Y262560D01*
X467464Y262588D01*
X467502Y262599D01*
X468025Y262519D01*
X468086Y262463D01*
X468103Y262444D01*
X468365Y262102D01*
X469067Y261563D01*
X469885Y261224D01*
X470763Y261109D01*
X475881D01*
X476759Y261224D01*
X477577Y261563D01*
X478279Y262102D01*
X478818Y262804D01*
X479157Y263622D01*
X479272Y264500D01*
X479157Y265378D01*
X478818Y266196D01*
X478279Y266898D01*
X477577Y267437D01*
X476759Y267776D01*
X475881Y267891D01*
X470763D01*
X469885Y267776D01*
X469601Y267658D01*
X469110Y267667D01*
X469029Y267798D01*
X468961Y267936D01*
X468926Y267966D01*
X468901Y268006D01*
X468776Y268095D01*
X468660Y268196D01*
X468616Y268211D01*
X468578Y268238D01*
X468429Y268273D01*
X468283Y268322D01*
X468236Y268319D01*
X468191Y268329D01*
X449575Y268983D01*
X449509Y269033D01*
X449213Y269341D01*
X449179Y269425D01*
Y270701D01*
X449179D01*
Y271142D01*
X449179D01*
Y271892D01*
X464500D01*
X465085Y272008D01*
X465581Y272340D01*
X466133Y272892D01*
X467583D01*
X467826Y272304D01*
X468365Y271602D01*
X469067Y271063D01*
X469885Y270724D01*
X470763Y270609D01*
X475881D01*
X476759Y270724D01*
X477577Y271063D01*
X478279Y271602D01*
X478818Y272304D01*
X479157Y273122D01*
X479272Y274000D01*
X479157Y274878D01*
X478818Y275696D01*
X478279Y276398D01*
X477577Y276937D01*
X476759Y277276D01*
X475881Y277391D01*
X470763D01*
X469885Y277276D01*
X469067Y276937D01*
X468365Y276398D01*
X468021Y275951D01*
X465500D01*
X464915Y275834D01*
X464419Y275502D01*
X463867Y274951D01*
X449179D01*
Y275701D01*
X449179D01*
Y276142D01*
X449179D01*
Y276892D01*
X457000D01*
X457585Y277008D01*
X458081Y277340D01*
X463633Y282892D01*
X467790D01*
X467826Y282804D01*
X468365Y282102D01*
X469067Y281563D01*
X469885Y281224D01*
X470763Y281109D01*
X475881D01*
X476759Y281224D01*
X477577Y281563D01*
X478279Y282102D01*
X478818Y282804D01*
X479157Y283622D01*
X479272Y284500D01*
X479157Y285378D01*
X478818Y286196D01*
X478279Y286898D01*
X477577Y287437D01*
X476759Y287776D01*
X475881Y287891D01*
X470763D01*
X469885Y287776D01*
X469067Y287437D01*
X468365Y286898D01*
X467826Y286196D01*
X467724Y285950D01*
X463000D01*
X462415Y285834D01*
X461919Y285503D01*
X456366Y279950D01*
X449179D01*
Y280701D01*
X449179D01*
Y281142D01*
X449179D01*
Y281892D01*
X450000D01*
X450585Y282008D01*
X451081Y282340D01*
X461633Y292892D01*
X467790D01*
X467826Y292804D01*
X468365Y292102D01*
X469067Y291563D01*
X469885Y291224D01*
X470763Y291109D01*
X475881D01*
X476759Y291224D01*
X477577Y291563D01*
X478279Y292102D01*
X478818Y292804D01*
X479157Y293622D01*
X479272Y294500D01*
X479157Y295378D01*
X478818Y296196D01*
X478279Y296898D01*
X477577Y297437D01*
X476759Y297776D01*
X475881Y297891D01*
X470763D01*
X469885Y297776D01*
X469067Y297437D01*
X468365Y296898D01*
X467826Y296196D01*
X467724Y295951D01*
X461000D01*
X460415Y295834D01*
X459919Y295502D01*
X449679Y285263D01*
X449179Y285470D01*
Y285701D01*
X442020D01*
Y296000D01*
X441942Y296390D01*
X441721Y296721D01*
X437904Y300538D01*
X438095Y301000D01*
X442283D01*
Y301652D01*
X455760D01*
X456345Y301768D01*
X456841Y302099D01*
X458134Y303392D01*
X467583D01*
X467826Y302804D01*
X468365Y302102D01*
X469067Y301563D01*
X469885Y301224D01*
X470763Y301109D01*
X475881D01*
X476759Y301224D01*
X477577Y301563D01*
X478279Y302102D01*
X478818Y302804D01*
X479157Y303622D01*
X479272Y304500D01*
X479157Y305378D01*
X478818Y306196D01*
X478279Y306898D01*
X477577Y307437D01*
X476759Y307776D01*
X475881Y307891D01*
X470763D01*
X469885Y307776D01*
X469067Y307437D01*
X468365Y306898D01*
X468021Y306451D01*
X457500D01*
X456915Y306334D01*
X456419Y306002D01*
X455126Y304710D01*
X442283D01*
Y309132D01*
X454240D01*
X454825Y309248D01*
X455322Y309580D01*
X458634Y312892D01*
X467401D01*
Y311138D01*
X479243D01*
Y317862D01*
D02*
G37*
G36*
X415000Y270825D02*
Y269000D01*
X416825D01*
X416740Y269428D01*
X416214Y270214D01*
X415428Y270740D01*
X415000Y270825D01*
D02*
G37*
G36*
X414000D02*
X413572Y270740D01*
X412786Y270214D01*
X412260Y269428D01*
X412175Y269000D01*
X414000D01*
Y270825D01*
D02*
G37*
G36*
X416825Y268000D02*
X415000D01*
Y266175D01*
X415428Y266260D01*
X416214Y266786D01*
X416740Y267572D01*
X416825Y268000D01*
D02*
G37*
G36*
X414000D02*
X412175D01*
X412260Y267572D01*
X412786Y266786D01*
X413572Y266260D01*
X414000Y266175D01*
Y268000D01*
D02*
G37*
G36*
X423323Y267921D02*
X419821D01*
Y266142D01*
X423323D01*
Y267921D01*
D02*
G37*
G36*
X424500Y263325D02*
Y261500D01*
X426325D01*
X426240Y261928D01*
X425714Y262714D01*
X424928Y263240D01*
X424500Y263325D01*
D02*
G37*
G36*
X423500D02*
X423072Y263240D01*
X422286Y262714D01*
X421760Y261928D01*
X421675Y261500D01*
X423500D01*
Y263325D01*
D02*
G37*
G36*
X415000D02*
Y261500D01*
X416825D01*
X416740Y261928D01*
X416214Y262714D01*
X415428Y263240D01*
X415000Y263325D01*
D02*
G37*
G36*
X414000D02*
X413572Y263240D01*
X412786Y262714D01*
X412260Y261928D01*
X412175Y261500D01*
X414000D01*
Y263325D01*
D02*
G37*
G36*
X426325Y260500D02*
X424500D01*
Y258675D01*
X424928Y258760D01*
X425714Y259286D01*
X426240Y260072D01*
X426325Y260500D01*
D02*
G37*
G36*
X423500D02*
X421675D01*
X421760Y260072D01*
X422286Y259286D01*
X423072Y258760D01*
X423500Y258675D01*
Y260500D01*
D02*
G37*
G36*
X416825D02*
X415000D01*
Y258675D01*
X415428Y258760D01*
X416214Y259286D01*
X416740Y260072D01*
X416825Y260500D01*
D02*
G37*
G36*
X414000D02*
X412175D01*
X412260Y260072D01*
X412786Y259286D01*
X413572Y258760D01*
X414000Y258675D01*
Y260500D01*
D02*
G37*
G36*
X475881Y257891D02*
X473822D01*
Y255000D01*
X479206D01*
X479157Y255378D01*
X478818Y256196D01*
X478279Y256898D01*
X477577Y257437D01*
X476759Y257776D01*
X475881Y257891D01*
D02*
G37*
G36*
X479206Y254000D02*
X473822D01*
Y251109D01*
X475881D01*
X476759Y251224D01*
X477577Y251563D01*
X478279Y252102D01*
X478818Y252804D01*
X479157Y253622D01*
X479206Y254000D01*
D02*
G37*
G36*
X397559Y267891D02*
X392441D01*
X391563Y267776D01*
X390745Y267437D01*
X390043Y266898D01*
X389504Y266196D01*
X389165Y265378D01*
X389050Y264500D01*
X389165Y263622D01*
X389504Y262804D01*
X390043Y262102D01*
X390745Y261563D01*
X391563Y261224D01*
X392441Y261109D01*
X397559D01*
X398437Y261224D01*
X399255Y261563D01*
X399957Y262102D01*
X400030Y262197D01*
X400529Y262229D01*
X416419Y246340D01*
X416915Y246008D01*
X417283Y245935D01*
Y245240D01*
X425189D01*
Y249602D01*
X417482D01*
X401581Y265503D01*
X401085Y265834D01*
X400606Y265929D01*
X400496Y266196D01*
X399957Y266898D01*
X399255Y267437D01*
X398437Y267776D01*
X397559Y267891D01*
D02*
G37*
G36*
X475881Y247891D02*
X470763D01*
X469885Y247776D01*
X469067Y247437D01*
X468365Y246898D01*
X467826Y246196D01*
X467724Y245951D01*
X464000D01*
X463415Y245834D01*
X462919Y245502D01*
X461367Y243951D01*
X454716D01*
Y244602D01*
X446811D01*
Y240240D01*
X454716D01*
Y240892D01*
X462000D01*
X462585Y241008D01*
X463081Y241340D01*
X464634Y242892D01*
X467790D01*
X467826Y242804D01*
X468365Y242102D01*
X469067Y241563D01*
X469885Y241224D01*
X470763Y241109D01*
X475881D01*
X476759Y241224D01*
X477577Y241563D01*
X478279Y242102D01*
X478818Y242804D01*
X479157Y243622D01*
X479272Y244500D01*
X479157Y245378D01*
X478818Y246196D01*
X478279Y246898D01*
X477577Y247437D01*
X476759Y247776D01*
X475881Y247891D01*
D02*
G37*
G36*
X397559Y257891D02*
X392441D01*
X391563Y257776D01*
X390745Y257437D01*
X390043Y256898D01*
X389504Y256196D01*
X389165Y255378D01*
X389050Y254500D01*
X389165Y253622D01*
X389504Y252804D01*
X390043Y252102D01*
X390745Y251563D01*
X391563Y251224D01*
X392441Y251109D01*
X397559D01*
X398437Y251224D01*
X399255Y251563D01*
X399957Y252102D01*
X400496Y252804D01*
X400532Y252892D01*
X401866D01*
X413919Y240840D01*
X414415Y240508D01*
X415000Y240392D01*
X417283D01*
Y240240D01*
X425189D01*
Y244602D01*
X417283D01*
Y243450D01*
X415633D01*
X403581Y255503D01*
X403085Y255834D01*
X402500Y255950D01*
X400597D01*
X400496Y256196D01*
X399957Y256898D01*
X399255Y257437D01*
X398437Y257776D01*
X397559Y257891D01*
D02*
G37*
G36*
Y247891D02*
X392441D01*
X391563Y247776D01*
X390745Y247437D01*
X390043Y246898D01*
X389504Y246196D01*
X389165Y245378D01*
X389050Y244500D01*
X389165Y243622D01*
X389504Y242804D01*
X390043Y242102D01*
X390745Y241563D01*
X391563Y241224D01*
X392441Y241109D01*
X397559D01*
X398437Y241224D01*
X399255Y241563D01*
X399957Y242102D01*
X400496Y242804D01*
X400532Y242892D01*
X403866D01*
X410419Y236340D01*
X410915Y236008D01*
X411500Y235892D01*
X417283D01*
Y235240D01*
X425189D01*
Y239602D01*
X417283D01*
Y238950D01*
X412134D01*
X405581Y245502D01*
X405085Y245834D01*
X404500Y245951D01*
X400597D01*
X400496Y246196D01*
X399957Y246898D01*
X399255Y247437D01*
X398437Y247776D01*
X397559Y247891D01*
D02*
G37*
G36*
Y237891D02*
X395500D01*
Y235000D01*
X400884D01*
X400835Y235378D01*
X400496Y236196D01*
X399957Y236898D01*
X399255Y237437D01*
X398437Y237776D01*
X397559Y237891D01*
D02*
G37*
G36*
X394500D02*
X392441D01*
X391563Y237776D01*
X390745Y237437D01*
X390043Y236898D01*
X389504Y236196D01*
X389165Y235378D01*
X389116Y235000D01*
X394500D01*
Y237891D01*
D02*
G37*
G36*
X428500Y234825D02*
X428072Y234740D01*
X427286Y234214D01*
X427109Y233950D01*
X425189D01*
Y234602D01*
X421736D01*
Y232421D01*
Y230240D01*
X425189D01*
Y230892D01*
X427215D01*
X427286Y230786D01*
X428072Y230260D01*
X428500Y230175D01*
Y232500D01*
Y234825D01*
D02*
G37*
G36*
X413000D02*
Y233000D01*
X414825D01*
X414740Y233428D01*
X414214Y234214D01*
X413428Y234740D01*
X413000Y234825D01*
D02*
G37*
G36*
X412000D02*
X411572Y234740D01*
X410786Y234214D01*
X410260Y233428D01*
X410175Y233000D01*
X412000D01*
Y234825D01*
D02*
G37*
G36*
X420736Y234602D02*
X417283D01*
Y232921D01*
X420736D01*
Y234602D01*
D02*
G37*
G36*
X454716Y239602D02*
X446811D01*
Y235240D01*
X454716D01*
Y235892D01*
X462445D01*
X464919Y233419D01*
X465415Y233087D01*
X466000Y232971D01*
X467757D01*
X467826Y232804D01*
X468365Y232102D01*
X469067Y231563D01*
X469885Y231224D01*
X470763Y231109D01*
X475881D01*
X476759Y231224D01*
X477577Y231563D01*
X478279Y232102D01*
X478818Y232804D01*
X479157Y233622D01*
X479272Y234500D01*
X479157Y235378D01*
X478818Y236196D01*
X478279Y236898D01*
X477577Y237437D01*
X476759Y237776D01*
X475881Y237891D01*
X470763D01*
X469885Y237776D01*
X469067Y237437D01*
X468365Y236898D01*
X467826Y236196D01*
X467757Y236029D01*
X466634D01*
X464160Y238503D01*
X463664Y238834D01*
X463079Y238950D01*
X454716D01*
Y239602D01*
D02*
G37*
G36*
X400884Y234000D02*
X395500D01*
Y231109D01*
X397559D01*
X398437Y231224D01*
X399255Y231563D01*
X399957Y232102D01*
X400496Y232804D01*
X400835Y233622D01*
X400884Y234000D01*
D02*
G37*
G36*
X394500D02*
X389116D01*
X389165Y233622D01*
X389504Y232804D01*
X390043Y232102D01*
X390745Y231563D01*
X391563Y231224D01*
X392441Y231109D01*
X394500D01*
Y234000D01*
D02*
G37*
G36*
X420736Y231921D02*
X417283D01*
Y230240D01*
X420736D01*
Y231921D01*
D02*
G37*
G36*
X414825Y232000D02*
X413000D01*
Y230175D01*
X413428Y230260D01*
X414214Y230786D01*
X414740Y231572D01*
X414825Y232000D01*
D02*
G37*
G36*
X412000D02*
X410175D01*
X410260Y231572D01*
X410786Y230786D01*
X411572Y230260D01*
X412000Y230175D01*
Y232000D01*
D02*
G37*
G36*
X413000Y228325D02*
Y226500D01*
X414825D01*
X414740Y226928D01*
X414214Y227714D01*
X413428Y228240D01*
X413000Y228325D01*
D02*
G37*
G36*
X412000D02*
X411572Y228240D01*
X410786Y227714D01*
X410260Y226928D01*
X410175Y226500D01*
X412000D01*
Y228325D01*
D02*
G37*
G36*
X397559Y227891D02*
X395500D01*
Y225000D01*
X400884D01*
X400835Y225378D01*
X400496Y226196D01*
X399957Y226898D01*
X399255Y227437D01*
X398437Y227776D01*
X397559Y227891D01*
D02*
G37*
G36*
X394500D02*
X392441D01*
X391563Y227776D01*
X390745Y227437D01*
X390043Y226898D01*
X389504Y226196D01*
X389165Y225378D01*
X389116Y225000D01*
X394500D01*
Y227891D01*
D02*
G37*
G36*
X414825Y225500D02*
X413000D01*
Y223675D01*
X413428Y223760D01*
X414214Y224286D01*
X414740Y225072D01*
X414825Y225500D01*
D02*
G37*
G36*
X412000D02*
X410175D01*
X410260Y225072D01*
X410786Y224286D01*
X411572Y223760D01*
X412000Y223675D01*
Y225500D01*
D02*
G37*
G36*
X454716Y234602D02*
X446811D01*
Y230240D01*
X454716D01*
Y230892D01*
X455445D01*
X462997Y223340D01*
X463494Y223008D01*
X464079Y222892D01*
X467790D01*
X467826Y222804D01*
X468365Y222102D01*
X469067Y221563D01*
X469885Y221224D01*
X470763Y221109D01*
X475881D01*
X476759Y221224D01*
X477577Y221563D01*
X478279Y222102D01*
X478818Y222804D01*
X479157Y223622D01*
X479272Y224500D01*
X479157Y225378D01*
X478818Y226196D01*
X478279Y226898D01*
X477577Y227437D01*
X476759Y227776D01*
X475881Y227891D01*
X470763D01*
X469885Y227776D01*
X469067Y227437D01*
X468365Y226898D01*
X467826Y226196D01*
X467724Y225951D01*
X464712D01*
X457160Y233503D01*
X456664Y233834D01*
X456079Y233950D01*
X454716D01*
Y234602D01*
D02*
G37*
G36*
X400884Y224000D02*
X395500D01*
Y221109D01*
X397559D01*
X398437Y221224D01*
X399255Y221563D01*
X399957Y222102D01*
X400496Y222804D01*
X400835Y223622D01*
X400884Y224000D01*
D02*
G37*
G36*
X394500D02*
X389116D01*
X389165Y223622D01*
X389504Y222804D01*
X390043Y222102D01*
X390745Y221563D01*
X391563Y221224D01*
X392441Y221109D01*
X394500D01*
Y224000D01*
D02*
G37*
%LPD*%
G36*
X441000Y296000D02*
Y270000D01*
X441175D01*
Y268921D01*
X445177D01*
Y268421D01*
X445677D01*
Y266142D01*
X449179D01*
Y267616D01*
X449539Y267964D01*
X468155Y267310D01*
X468294Y266805D01*
X467826Y266196D01*
X467487Y265378D01*
X467437Y265000D01*
X473322D01*
Y264000D01*
X467437D01*
X467024Y263500D01*
X456000D01*
X453756Y261256D01*
X447429D01*
X447429Y261256D01*
Y261256D01*
X447023Y261477D01*
X445500Y263000D01*
X440500D01*
X440000Y262500D01*
Y261256D01*
X438095D01*
Y257500D01*
X437094D01*
Y261256D01*
X435000D01*
Y269675D01*
Y300500D01*
X436500D01*
X441000Y296000D01*
D02*
G37*
%LPC*%
G36*
X444677Y267921D02*
X441175D01*
Y266142D01*
X444677D01*
Y267921D01*
D02*
G37*
%LPD*%
D10*
X435500Y299500D02*
X437414Y297586D01*
X464079Y224421D02*
X473240D01*
X456079Y232421D02*
X464079Y224421D01*
X450764Y232421D02*
X456079D01*
X473161Y234500D02*
X473240Y234421D01*
X466000Y234500D02*
X473161D01*
X450764Y237421D02*
X463079D01*
X466000Y234500D01*
X437586Y247421D02*
X450764D01*
X437000Y256906D02*
X437595Y257500D01*
X437000Y248007D02*
Y256906D01*
Y248007D02*
X437586Y247421D01*
X435000Y305770D02*
X435704Y306474D01*
X435000Y301437D02*
Y305770D01*
X438474Y306474D02*
X438921Y306921D01*
X435704Y306474D02*
X438474D01*
X435500Y299500D02*
Y300938D01*
X435000Y301437D02*
X435500Y300938D01*
X472977Y253819D02*
X473579Y254421D01*
Y255250D01*
X466819Y253819D02*
X472977D01*
X466000Y253000D02*
X466819Y253819D01*
X447409Y253000D02*
X466000D01*
X443500Y256909D02*
Y257500D01*
Y256909D02*
X447409Y253000D01*
X456500Y257500D02*
X464247D01*
X464747Y258000D01*
X470828D01*
X473579Y255250D01*
X450595Y257500D02*
Y264726D01*
X446900Y268421D02*
X450595Y264726D01*
X445177Y268421D02*
X446900D01*
X437414Y270586D02*
X437595Y270406D01*
X437414Y270586D02*
Y297586D01*
X437595Y257500D02*
Y270406D01*
X470000Y256000D02*
X471579Y254421D01*
X430000Y232421D02*
X431414Y233835D01*
Y268421D01*
X400500Y264421D02*
X417500Y247421D01*
X421236D01*
X394500Y264421D02*
X400500D01*
X464000Y244421D02*
X473240D01*
X462000Y242421D02*
X464000Y244421D01*
X450764Y242421D02*
X462000D01*
X411500Y237421D02*
X421236D01*
X404500Y244421D02*
X411500Y237421D01*
X394500Y244421D02*
X404500D01*
X420736Y241921D02*
X421236Y242421D01*
X415000Y241921D02*
X420736D01*
X402500Y254421D02*
X415000Y241921D01*
X394500Y254421D02*
X402500D01*
X465500Y274421D02*
X473240D01*
X464500Y273421D02*
X465500Y274421D01*
X445177Y273421D02*
X464500D01*
X463000Y284421D02*
X473240D01*
X457000Y278421D02*
X463000Y284421D01*
X445177Y278421D02*
X457000D01*
X461000Y294421D02*
X473240D01*
X450000Y283421D02*
X461000Y294421D01*
X445177Y283421D02*
X450000D01*
X394500Y274421D02*
X415000D01*
X416000Y273421D01*
X423823D01*
X415000Y278421D02*
X423823D01*
X409000Y284421D02*
X415000Y278421D01*
X394500Y284421D02*
X409000D01*
X417500Y283421D02*
X423823D01*
X406500Y294421D02*
X417500Y283421D01*
X394500Y294421D02*
X406500D01*
X394500Y314421D02*
X417115D01*
X429079Y310661D02*
X429079Y310661D01*
X420875Y310661D02*
X429079D01*
X417115Y314421D02*
X420875Y310661D01*
X457500Y304921D02*
X472740D01*
X455760Y303181D02*
X457500Y304921D01*
X438921Y303181D02*
X455760D01*
X458000Y314421D02*
X473240D01*
X454240Y310661D02*
X458000Y314421D01*
X438921Y310661D02*
X454240D01*
X422240Y303181D02*
X429079D01*
X421000Y304421D02*
X422240Y303181D01*
X394500Y304421D02*
X421000D01*
X429079Y306921D02*
X431500D01*
X431414Y294645D02*
X432500Y295731D01*
X431414Y268421D02*
Y294645D01*
X423823Y268421D02*
X431414D01*
X421236Y232421D02*
X430000D01*
D12*
X450764Y247421D02*
D03*
Y242421D02*
D03*
Y237421D02*
D03*
Y232421D02*
D03*
X421236D02*
D03*
Y237421D02*
D03*
Y242421D02*
D03*
Y247421D02*
D03*
D13*
X445177Y268421D02*
D03*
Y273421D02*
D03*
Y278421D02*
D03*
Y283421D02*
D03*
X423823D02*
D03*
Y278421D02*
D03*
Y273421D02*
D03*
Y268421D02*
D03*
D14*
X443500Y257500D02*
D03*
X437595D02*
D03*
X456500D02*
D03*
X450595D02*
D03*
D15*
X429079Y310661D02*
D03*
Y306921D02*
D03*
Y303181D02*
D03*
X438921D02*
D03*
Y306921D02*
D03*
Y310661D02*
D03*
D23*
X431500Y306921D02*
X432500Y305921D01*
Y305000D02*
Y305921D01*
Y295731D02*
Y301362D01*
X432641Y301503D02*
Y304859D01*
X432500Y301362D02*
X432641Y301503D01*
X432500Y305000D02*
X432641Y304859D01*
D24*
X473322Y224500D02*
D03*
Y234500D02*
D03*
Y244500D02*
D03*
Y254500D02*
D03*
Y264500D02*
D03*
Y274000D02*
D03*
Y284500D02*
D03*
Y294500D02*
D03*
Y304500D02*
D03*
X395000Y224500D02*
D03*
Y234500D02*
D03*
Y244500D02*
D03*
Y254500D02*
D03*
Y264500D02*
D03*
Y274000D02*
D03*
Y284500D02*
D03*
Y294500D02*
D03*
Y304500D02*
D03*
D25*
X473322Y314500D02*
D03*
X395000D02*
D03*
D26*
X423500Y307000D02*
D03*
X434000Y309500D02*
D03*
X429000Y232500D02*
D03*
X412500Y226000D02*
D03*
Y232500D02*
D03*
X414500Y261000D02*
D03*
X424000D02*
D03*
X414500Y268500D02*
D03*
M02*
