G04*
G04 #@! TF.GenerationSoftware,Altium Limited,Altium Designer,20.0.14 (345)*
G04*
G04 Layer_Color=2752767*
%FSLAX25Y25*%
%MOIN*%
G70*
G01*
G75*
%ADD27C,0.00200*%
%ADD28C,0.00267*%
D27*
X472522Y223700D02*
Y225300D01*
X474122D01*
Y223700D01*
X472522D01*
Y233700D02*
Y235300D01*
X474122D01*
Y233700D01*
X472522D01*
Y243700D02*
Y245300D01*
X474122D01*
Y243700D01*
X472522D01*
Y253700D02*
Y255300D01*
X474122D01*
Y253700D01*
X472522D01*
Y263700D02*
Y265300D01*
X474122D01*
Y263700D01*
X472522D01*
Y273200D02*
Y274800D01*
X474122D01*
Y273200D01*
X472522D01*
Y283700D02*
Y285300D01*
X474122D01*
Y283700D01*
X472522D01*
Y293700D02*
Y295300D01*
X474122D01*
Y293700D01*
X472522D01*
Y303700D02*
Y305300D01*
X474122D01*
Y303700D01*
X472522D01*
Y313700D02*
Y315300D01*
X474122D01*
Y313700D01*
X472522D01*
X394200Y223700D02*
Y225300D01*
X395800D01*
Y223700D01*
X394200D01*
Y233700D02*
Y235300D01*
X395800D01*
Y233700D01*
X394200D01*
Y243700D02*
Y245300D01*
X395800D01*
Y243700D01*
X394200D01*
Y253700D02*
Y255300D01*
X395800D01*
Y253700D01*
X394200D01*
Y263700D02*
Y265300D01*
X395800D01*
Y263700D01*
X394200D01*
Y273200D02*
Y274800D01*
X395800D01*
Y273200D01*
X394200D01*
Y283700D02*
Y285300D01*
X395800D01*
Y283700D01*
X394200D01*
Y293700D02*
Y295300D01*
X395800D01*
Y293700D01*
X394200D01*
Y303700D02*
Y305300D01*
X395800D01*
Y303700D01*
X394200D01*
Y313700D02*
Y315300D01*
X395800D01*
Y313700D01*
X394200D01*
D28*
X424300Y307000D02*
X423747Y307761D01*
X422853Y307470D01*
Y306530D01*
X423747Y306239D01*
X424300Y307000D01*
X434800Y309500D02*
X434247Y310261D01*
X433353Y309970D01*
Y309030D01*
X434247Y308739D01*
X434800Y309500D01*
X429800Y232500D02*
X429247Y233261D01*
X428353Y232970D01*
Y232030D01*
X429247Y231739D01*
X429800Y232500D01*
X413300Y226000D02*
X412747Y226761D01*
X411853Y226470D01*
Y225530D01*
X412747Y225239D01*
X413300Y226000D01*
Y232500D02*
X412747Y233261D01*
X411853Y232970D01*
Y232030D01*
X412747Y231739D01*
X413300Y232500D01*
X415300Y261000D02*
X414747Y261761D01*
X413853Y261470D01*
Y260530D01*
X414747Y260239D01*
X415300Y261000D01*
X424800D02*
X424247Y261761D01*
X423353Y261470D01*
Y260530D01*
X424247Y260239D01*
X424800Y261000D01*
X415300Y268500D02*
X414747Y269261D01*
X413853Y268970D01*
Y268030D01*
X414747Y267739D01*
X415300Y268500D01*
M02*
