G04*
G04 #@! TF.GenerationSoftware,Altium Limited,Altium Designer,20.0.14 (345)*
G04*
G04 Layer_Color=8388736*
%FSLAX25Y25*%
%MOIN*%
G70*
G01*
G75*
%ADD16R,0.06706X0.03162*%
%ADD17R,0.06804X0.03359*%
%ADD18R,0.05131X0.06312*%
%ADD19R,0.05524X0.03162*%
%ADD20O,0.10642X0.05524*%
%ADD21R,0.10642X0.05524*%
%ADD22C,0.03556*%
D16*
X450764Y247421D02*
D03*
Y242421D02*
D03*
Y237421D02*
D03*
Y232421D02*
D03*
X421236D02*
D03*
Y237421D02*
D03*
Y242421D02*
D03*
Y247421D02*
D03*
D17*
X445177Y268421D02*
D03*
Y273421D02*
D03*
Y278421D02*
D03*
Y283421D02*
D03*
X423823D02*
D03*
Y278421D02*
D03*
Y273421D02*
D03*
Y268421D02*
D03*
D18*
X443500Y257500D02*
D03*
X437595D02*
D03*
X456500D02*
D03*
X450595D02*
D03*
D19*
X429079Y310661D02*
D03*
Y306921D02*
D03*
Y303181D02*
D03*
X438921D02*
D03*
Y306921D02*
D03*
Y310661D02*
D03*
D20*
X473322Y224500D02*
D03*
Y234500D02*
D03*
Y244500D02*
D03*
Y254500D02*
D03*
Y264500D02*
D03*
Y274000D02*
D03*
Y284500D02*
D03*
Y294500D02*
D03*
Y304500D02*
D03*
X395000Y224500D02*
D03*
Y234500D02*
D03*
Y244500D02*
D03*
Y254500D02*
D03*
Y264500D02*
D03*
Y274000D02*
D03*
Y284500D02*
D03*
Y294500D02*
D03*
Y304500D02*
D03*
D21*
X473322Y314500D02*
D03*
X395000D02*
D03*
D22*
X423500Y307000D02*
D03*
X434000Y309500D02*
D03*
X429000Y232500D02*
D03*
X412500Y226000D02*
D03*
Y232500D02*
D03*
X414500Y261000D02*
D03*
X424000D02*
D03*
X414500Y268500D02*
D03*
M02*
