G04*
G04 #@! TF.GenerationSoftware,Altium Limited,Altium Designer,20.0.14 (345)*
G04*
G04 Layer_Physical_Order=2*
G04 Layer_Color=16711680*
%FSLAX25Y25*%
%MOIN*%
G70*
G01*
G75*
%ADD24O,0.09843X0.04724*%
%ADD25R,0.09843X0.04724*%
%ADD26C,0.02756*%
G36*
X481000Y216500D02*
X387500D01*
Y323000D01*
X481000D01*
Y216500D01*
D02*
G37*
%LPC*%
G36*
X479243Y317862D02*
X467401D01*
Y311138D01*
X479243D01*
Y317862D01*
D02*
G37*
G36*
X400921D02*
X389079D01*
Y311138D01*
X400921D01*
Y317862D01*
D02*
G37*
G36*
X434500Y311825D02*
Y310000D01*
X436325D01*
X436240Y310428D01*
X435714Y311214D01*
X434928Y311740D01*
X434500Y311825D01*
D02*
G37*
G36*
X433500D02*
X433072Y311740D01*
X432286Y311214D01*
X431760Y310428D01*
X431675Y310000D01*
X433500D01*
Y311825D01*
D02*
G37*
G36*
X424000Y309325D02*
Y307500D01*
X425825D01*
X425740Y307928D01*
X425214Y308714D01*
X424428Y309240D01*
X424000Y309325D01*
D02*
G37*
G36*
X423000D02*
X422572Y309240D01*
X421786Y308714D01*
X421260Y307928D01*
X421175Y307500D01*
X423000D01*
Y309325D01*
D02*
G37*
G36*
X436325Y309000D02*
X434500D01*
Y307175D01*
X434928Y307260D01*
X435714Y307786D01*
X436240Y308572D01*
X436325Y309000D01*
D02*
G37*
G36*
X433500D02*
X431675D01*
X431760Y308572D01*
X432286Y307786D01*
X433072Y307260D01*
X433500Y307175D01*
Y309000D01*
D02*
G37*
G36*
X425825Y306500D02*
X424000D01*
Y304675D01*
X424428Y304760D01*
X425214Y305286D01*
X425740Y306072D01*
X425825Y306500D01*
D02*
G37*
G36*
X423000D02*
X421175D01*
X421260Y306072D01*
X421786Y305286D01*
X422572Y304760D01*
X423000Y304675D01*
Y306500D01*
D02*
G37*
G36*
X475881Y307891D02*
X470763D01*
X469885Y307776D01*
X469067Y307437D01*
X468365Y306898D01*
X467826Y306196D01*
X467487Y305378D01*
X467372Y304500D01*
X467487Y303622D01*
X467826Y302804D01*
X468365Y302102D01*
X469067Y301563D01*
X469885Y301224D01*
X470763Y301109D01*
X475881D01*
X476759Y301224D01*
X477577Y301563D01*
X478279Y302102D01*
X478818Y302804D01*
X479157Y303622D01*
X479272Y304500D01*
X479157Y305378D01*
X478818Y306196D01*
X478279Y306898D01*
X477577Y307437D01*
X476759Y307776D01*
X475881Y307891D01*
D02*
G37*
G36*
X397559D02*
X392441D01*
X391563Y307776D01*
X390745Y307437D01*
X390043Y306898D01*
X389504Y306196D01*
X389165Y305378D01*
X389050Y304500D01*
X389165Y303622D01*
X389504Y302804D01*
X390043Y302102D01*
X390745Y301563D01*
X391563Y301224D01*
X392441Y301109D01*
X397559D01*
X398437Y301224D01*
X399255Y301563D01*
X399957Y302102D01*
X400496Y302804D01*
X400835Y303622D01*
X400950Y304500D01*
X400835Y305378D01*
X400496Y306196D01*
X399957Y306898D01*
X399255Y307437D01*
X398437Y307776D01*
X397559Y307891D01*
D02*
G37*
G36*
X475881Y297891D02*
X470763D01*
X469885Y297776D01*
X469067Y297437D01*
X468365Y296898D01*
X467826Y296196D01*
X467487Y295378D01*
X467372Y294500D01*
X467487Y293622D01*
X467826Y292804D01*
X468365Y292102D01*
X469067Y291563D01*
X469885Y291224D01*
X470763Y291109D01*
X475881D01*
X476759Y291224D01*
X477577Y291563D01*
X478279Y292102D01*
X478818Y292804D01*
X479157Y293622D01*
X479272Y294500D01*
X479157Y295378D01*
X478818Y296196D01*
X478279Y296898D01*
X477577Y297437D01*
X476759Y297776D01*
X475881Y297891D01*
D02*
G37*
G36*
X397559D02*
X392441D01*
X391563Y297776D01*
X390745Y297437D01*
X390043Y296898D01*
X389504Y296196D01*
X389165Y295378D01*
X389050Y294500D01*
X389165Y293622D01*
X389504Y292804D01*
X390043Y292102D01*
X390745Y291563D01*
X391563Y291224D01*
X392441Y291109D01*
X397559D01*
X398437Y291224D01*
X399255Y291563D01*
X399957Y292102D01*
X400496Y292804D01*
X400835Y293622D01*
X400950Y294500D01*
X400835Y295378D01*
X400496Y296196D01*
X399957Y296898D01*
X399255Y297437D01*
X398437Y297776D01*
X397559Y297891D01*
D02*
G37*
G36*
X475881Y287891D02*
X470763D01*
X469885Y287776D01*
X469067Y287437D01*
X468365Y286898D01*
X467826Y286196D01*
X467487Y285378D01*
X467372Y284500D01*
X467487Y283622D01*
X467826Y282804D01*
X468365Y282102D01*
X469067Y281563D01*
X469885Y281224D01*
X470763Y281109D01*
X475881D01*
X476759Y281224D01*
X477577Y281563D01*
X478279Y282102D01*
X478818Y282804D01*
X479157Y283622D01*
X479272Y284500D01*
X479157Y285378D01*
X478818Y286196D01*
X478279Y286898D01*
X477577Y287437D01*
X476759Y287776D01*
X475881Y287891D01*
D02*
G37*
G36*
X397559D02*
X392441D01*
X391563Y287776D01*
X390745Y287437D01*
X390043Y286898D01*
X389504Y286196D01*
X389165Y285378D01*
X389050Y284500D01*
X389165Y283622D01*
X389504Y282804D01*
X390043Y282102D01*
X390745Y281563D01*
X391563Y281224D01*
X392441Y281109D01*
X397559D01*
X398437Y281224D01*
X399255Y281563D01*
X399957Y282102D01*
X400496Y282804D01*
X400835Y283622D01*
X400950Y284500D01*
X400835Y285378D01*
X400496Y286196D01*
X399957Y286898D01*
X399255Y287437D01*
X398437Y287776D01*
X397559Y287891D01*
D02*
G37*
G36*
X475881Y277391D02*
X470763D01*
X469885Y277276D01*
X469067Y276937D01*
X468365Y276398D01*
X467826Y275696D01*
X467487Y274878D01*
X467372Y274000D01*
X467487Y273122D01*
X467826Y272304D01*
X468365Y271602D01*
X469067Y271063D01*
X469885Y270724D01*
X470763Y270609D01*
X475881D01*
X476759Y270724D01*
X477577Y271063D01*
X478279Y271602D01*
X478818Y272304D01*
X479157Y273122D01*
X479272Y274000D01*
X479157Y274878D01*
X478818Y275696D01*
X478279Y276398D01*
X477577Y276937D01*
X476759Y277276D01*
X475881Y277391D01*
D02*
G37*
G36*
X397559D02*
X392441D01*
X391563Y277276D01*
X390745Y276937D01*
X390043Y276398D01*
X389504Y275696D01*
X389165Y274878D01*
X389050Y274000D01*
X389165Y273122D01*
X389504Y272304D01*
X390043Y271602D01*
X390745Y271063D01*
X391563Y270724D01*
X392441Y270609D01*
X397559D01*
X398437Y270724D01*
X399255Y271063D01*
X399957Y271602D01*
X400496Y272304D01*
X400835Y273122D01*
X400950Y274000D01*
X400835Y274878D01*
X400496Y275696D01*
X399957Y276398D01*
X399255Y276937D01*
X398437Y277276D01*
X397559Y277391D01*
D02*
G37*
G36*
X415000Y270825D02*
Y269000D01*
X416825D01*
X416740Y269428D01*
X416214Y270214D01*
X415428Y270740D01*
X415000Y270825D01*
D02*
G37*
G36*
X414000D02*
X413572Y270740D01*
X412786Y270214D01*
X412260Y269428D01*
X412175Y269000D01*
X414000D01*
Y270825D01*
D02*
G37*
G36*
X416825Y268000D02*
X415000D01*
Y266175D01*
X415428Y266260D01*
X416214Y266786D01*
X416740Y267572D01*
X416825Y268000D01*
D02*
G37*
G36*
X414000D02*
X412175D01*
X412260Y267572D01*
X412786Y266786D01*
X413572Y266260D01*
X414000Y266175D01*
Y268000D01*
D02*
G37*
G36*
X424500Y263325D02*
Y261500D01*
X426325D01*
X426240Y261928D01*
X425714Y262714D01*
X424928Y263240D01*
X424500Y263325D01*
D02*
G37*
G36*
X423500D02*
X423072Y263240D01*
X422286Y262714D01*
X421760Y261928D01*
X421675Y261500D01*
X423500D01*
Y263325D01*
D02*
G37*
G36*
X415000D02*
Y261500D01*
X416825D01*
X416740Y261928D01*
X416214Y262714D01*
X415428Y263240D01*
X415000Y263325D01*
D02*
G37*
G36*
X414000D02*
X413572Y263240D01*
X412786Y262714D01*
X412260Y261928D01*
X412175Y261500D01*
X414000D01*
Y263325D01*
D02*
G37*
G36*
X475881Y267891D02*
X470763D01*
X469885Y267776D01*
X469067Y267437D01*
X468365Y266898D01*
X467826Y266196D01*
X467487Y265378D01*
X467372Y264500D01*
X467487Y263622D01*
X467826Y262804D01*
X468365Y262102D01*
X469067Y261563D01*
X469885Y261224D01*
X470763Y261109D01*
X475881D01*
X476759Y261224D01*
X477577Y261563D01*
X478279Y262102D01*
X478818Y262804D01*
X479157Y263622D01*
X479272Y264500D01*
X479157Y265378D01*
X478818Y266196D01*
X478279Y266898D01*
X477577Y267437D01*
X476759Y267776D01*
X475881Y267891D01*
D02*
G37*
G36*
X397559D02*
X392441D01*
X391563Y267776D01*
X390745Y267437D01*
X390043Y266898D01*
X389504Y266196D01*
X389165Y265378D01*
X389050Y264500D01*
X389165Y263622D01*
X389504Y262804D01*
X390043Y262102D01*
X390745Y261563D01*
X391563Y261224D01*
X392441Y261109D01*
X397559D01*
X398437Y261224D01*
X399255Y261563D01*
X399957Y262102D01*
X400496Y262804D01*
X400835Y263622D01*
X400950Y264500D01*
X400835Y265378D01*
X400496Y266196D01*
X399957Y266898D01*
X399255Y267437D01*
X398437Y267776D01*
X397559Y267891D01*
D02*
G37*
G36*
X426325Y260500D02*
X424500D01*
Y258675D01*
X424928Y258760D01*
X425714Y259286D01*
X426240Y260072D01*
X426325Y260500D01*
D02*
G37*
G36*
X423500D02*
X421675D01*
X421760Y260072D01*
X422286Y259286D01*
X423072Y258760D01*
X423500Y258675D01*
Y260500D01*
D02*
G37*
G36*
X416825D02*
X415000D01*
Y258675D01*
X415428Y258760D01*
X416214Y259286D01*
X416740Y260072D01*
X416825Y260500D01*
D02*
G37*
G36*
X414000D02*
X412175D01*
X412260Y260072D01*
X412786Y259286D01*
X413572Y258760D01*
X414000Y258675D01*
Y260500D01*
D02*
G37*
G36*
X475881Y257891D02*
X473822D01*
Y255000D01*
X479206D01*
X479157Y255378D01*
X478818Y256196D01*
X478279Y256898D01*
X477577Y257437D01*
X476759Y257776D01*
X475881Y257891D01*
D02*
G37*
G36*
X472822D02*
X470763D01*
X469885Y257776D01*
X469067Y257437D01*
X468365Y256898D01*
X467826Y256196D01*
X467487Y255378D01*
X467437Y255000D01*
X472822D01*
Y257891D01*
D02*
G37*
G36*
X479206Y254000D02*
X473822D01*
Y251109D01*
X475881D01*
X476759Y251224D01*
X477577Y251563D01*
X478279Y252102D01*
X478818Y252804D01*
X479157Y253622D01*
X479206Y254000D01*
D02*
G37*
G36*
X472822D02*
X467437D01*
X467487Y253622D01*
X467826Y252804D01*
X468365Y252102D01*
X469067Y251563D01*
X469885Y251224D01*
X470763Y251109D01*
X472822D01*
Y254000D01*
D02*
G37*
G36*
X397559Y257891D02*
X392441D01*
X391563Y257776D01*
X390745Y257437D01*
X390043Y256898D01*
X389504Y256196D01*
X389165Y255378D01*
X389050Y254500D01*
X389165Y253622D01*
X389504Y252804D01*
X390043Y252102D01*
X390745Y251563D01*
X391563Y251224D01*
X392441Y251109D01*
X397559D01*
X398437Y251224D01*
X399255Y251563D01*
X399957Y252102D01*
X400496Y252804D01*
X400835Y253622D01*
X400950Y254500D01*
X400835Y255378D01*
X400496Y256196D01*
X399957Y256898D01*
X399255Y257437D01*
X398437Y257776D01*
X397559Y257891D01*
D02*
G37*
G36*
X475881Y247891D02*
X470763D01*
X469885Y247776D01*
X469067Y247437D01*
X468365Y246898D01*
X467826Y246196D01*
X467487Y245378D01*
X467372Y244500D01*
X467487Y243622D01*
X467826Y242804D01*
X468365Y242102D01*
X469067Y241563D01*
X469885Y241224D01*
X470763Y241109D01*
X475881D01*
X476759Y241224D01*
X477577Y241563D01*
X478279Y242102D01*
X478818Y242804D01*
X479157Y243622D01*
X479272Y244500D01*
X479157Y245378D01*
X478818Y246196D01*
X478279Y246898D01*
X477577Y247437D01*
X476759Y247776D01*
X475881Y247891D01*
D02*
G37*
G36*
X397559D02*
X392441D01*
X391563Y247776D01*
X390745Y247437D01*
X390043Y246898D01*
X389504Y246196D01*
X389165Y245378D01*
X389050Y244500D01*
X389165Y243622D01*
X389504Y242804D01*
X390043Y242102D01*
X390745Y241563D01*
X391563Y241224D01*
X392441Y241109D01*
X397559D01*
X398437Y241224D01*
X399255Y241563D01*
X399957Y242102D01*
X400496Y242804D01*
X400835Y243622D01*
X400950Y244500D01*
X400835Y245378D01*
X400496Y246196D01*
X399957Y246898D01*
X399255Y247437D01*
X398437Y247776D01*
X397559Y247891D01*
D02*
G37*
G36*
Y237891D02*
X395500D01*
Y235000D01*
X400884D01*
X400835Y235378D01*
X400496Y236196D01*
X399957Y236898D01*
X399255Y237437D01*
X398437Y237776D01*
X397559Y237891D01*
D02*
G37*
G36*
X394500D02*
X392441D01*
X391563Y237776D01*
X390745Y237437D01*
X390043Y236898D01*
X389504Y236196D01*
X389165Y235378D01*
X389116Y235000D01*
X394500D01*
Y237891D01*
D02*
G37*
G36*
X429500Y234825D02*
Y233000D01*
X431325D01*
X431240Y233428D01*
X430714Y234214D01*
X429928Y234740D01*
X429500Y234825D01*
D02*
G37*
G36*
X428500D02*
X428072Y234740D01*
X427286Y234214D01*
X426760Y233428D01*
X426675Y233000D01*
X428500D01*
Y234825D01*
D02*
G37*
G36*
X413000D02*
Y233000D01*
X414825D01*
X414740Y233428D01*
X414214Y234214D01*
X413428Y234740D01*
X413000Y234825D01*
D02*
G37*
G36*
X412000D02*
X411572Y234740D01*
X410786Y234214D01*
X410260Y233428D01*
X410175Y233000D01*
X412000D01*
Y234825D01*
D02*
G37*
G36*
X475881Y237891D02*
X470763D01*
X469885Y237776D01*
X469067Y237437D01*
X468365Y236898D01*
X467826Y236196D01*
X467487Y235378D01*
X467372Y234500D01*
X467487Y233622D01*
X467826Y232804D01*
X468365Y232102D01*
X469067Y231563D01*
X469885Y231224D01*
X470763Y231109D01*
X475881D01*
X476759Y231224D01*
X477577Y231563D01*
X478279Y232102D01*
X478818Y232804D01*
X479157Y233622D01*
X479272Y234500D01*
X479157Y235378D01*
X478818Y236196D01*
X478279Y236898D01*
X477577Y237437D01*
X476759Y237776D01*
X475881Y237891D01*
D02*
G37*
G36*
X400884Y234000D02*
X395500D01*
Y231109D01*
X397559D01*
X398437Y231224D01*
X399255Y231563D01*
X399957Y232102D01*
X400496Y232804D01*
X400835Y233622D01*
X400884Y234000D01*
D02*
G37*
G36*
X394500D02*
X389116D01*
X389165Y233622D01*
X389504Y232804D01*
X390043Y232102D01*
X390745Y231563D01*
X391563Y231224D01*
X392441Y231109D01*
X394500D01*
Y234000D01*
D02*
G37*
G36*
X431325Y232000D02*
X429500D01*
Y230175D01*
X429928Y230260D01*
X430714Y230786D01*
X431240Y231572D01*
X431325Y232000D01*
D02*
G37*
G36*
X428500D02*
X426675D01*
X426760Y231572D01*
X427286Y230786D01*
X428072Y230260D01*
X428500Y230175D01*
Y232000D01*
D02*
G37*
G36*
X414825D02*
X413000D01*
Y230175D01*
X413428Y230260D01*
X414214Y230786D01*
X414740Y231572D01*
X414825Y232000D01*
D02*
G37*
G36*
X412000D02*
X410175D01*
X410260Y231572D01*
X410786Y230786D01*
X411572Y230260D01*
X412000Y230175D01*
Y232000D01*
D02*
G37*
G36*
X413000Y228325D02*
Y226500D01*
X414825D01*
X414740Y226928D01*
X414214Y227714D01*
X413428Y228240D01*
X413000Y228325D01*
D02*
G37*
G36*
X412000D02*
X411572Y228240D01*
X410786Y227714D01*
X410260Y226928D01*
X410175Y226500D01*
X412000D01*
Y228325D01*
D02*
G37*
G36*
X397559Y227891D02*
X395500D01*
Y225000D01*
X400884D01*
X400835Y225378D01*
X400496Y226196D01*
X399957Y226898D01*
X399255Y227437D01*
X398437Y227776D01*
X397559Y227891D01*
D02*
G37*
G36*
X394500D02*
X392441D01*
X391563Y227776D01*
X390745Y227437D01*
X390043Y226898D01*
X389504Y226196D01*
X389165Y225378D01*
X389116Y225000D01*
X394500D01*
Y227891D01*
D02*
G37*
G36*
X414825Y225500D02*
X413000D01*
Y223675D01*
X413428Y223760D01*
X414214Y224286D01*
X414740Y225072D01*
X414825Y225500D01*
D02*
G37*
G36*
X412000D02*
X410175D01*
X410260Y225072D01*
X410786Y224286D01*
X411572Y223760D01*
X412000Y223675D01*
Y225500D01*
D02*
G37*
G36*
X475881Y227891D02*
X470763D01*
X469885Y227776D01*
X469067Y227437D01*
X468365Y226898D01*
X467826Y226196D01*
X467487Y225378D01*
X467372Y224500D01*
X467487Y223622D01*
X467826Y222804D01*
X468365Y222102D01*
X469067Y221563D01*
X469885Y221224D01*
X470763Y221109D01*
X475881D01*
X476759Y221224D01*
X477577Y221563D01*
X478279Y222102D01*
X478818Y222804D01*
X479157Y223622D01*
X479272Y224500D01*
X479157Y225378D01*
X478818Y226196D01*
X478279Y226898D01*
X477577Y227437D01*
X476759Y227776D01*
X475881Y227891D01*
D02*
G37*
G36*
X400884Y224000D02*
X395500D01*
Y221109D01*
X397559D01*
X398437Y221224D01*
X399255Y221563D01*
X399957Y222102D01*
X400496Y222804D01*
X400835Y223622D01*
X400884Y224000D01*
D02*
G37*
G36*
X394500D02*
X389116D01*
X389165Y223622D01*
X389504Y222804D01*
X390043Y222102D01*
X390745Y221563D01*
X391563Y221224D01*
X392441Y221109D01*
X394500D01*
Y224000D01*
D02*
G37*
%LPD*%
D24*
X473322Y224500D02*
D03*
Y234500D02*
D03*
Y244500D02*
D03*
Y254500D02*
D03*
Y264500D02*
D03*
Y274000D02*
D03*
Y284500D02*
D03*
Y294500D02*
D03*
Y304500D02*
D03*
X395000Y224500D02*
D03*
Y234500D02*
D03*
Y244500D02*
D03*
Y254500D02*
D03*
Y264500D02*
D03*
Y274000D02*
D03*
Y284500D02*
D03*
Y294500D02*
D03*
Y304500D02*
D03*
D25*
X473322Y314500D02*
D03*
X395000D02*
D03*
D26*
X423500Y307000D02*
D03*
X434000Y309500D02*
D03*
X429000Y232500D02*
D03*
X412500Y226000D02*
D03*
Y232500D02*
D03*
X414500Y261000D02*
D03*
X424000D02*
D03*
X414500Y268500D02*
D03*
M02*
