M48
;Layer_Color=9474304
;FILE_FORMAT=2:5
INCH,LZ
;TYPE=PLATED
T1F00S00C0.01968
T2F00S00C0.03937
%
T01
X04125Y0226
Y02325
X0429
X0424Y0261
X04145
Y02685
X04235Y0307
X0434Y03095
T02
X0473322Y02245
Y02345
Y02445
Y02545
Y02645
Y0274
Y02845
Y02945
Y03045
X0395
Y02945
Y02845
Y0274
Y02645
Y02545
Y02445
Y02345
Y02245
Y03145
X0473322
M30
